<mxfile host="65bd71144e">
    <diagram id="BRQqsjdVDbu-6Gngma0f" name="Page-1">
        <mxGraphModel dx="1513" dy="864" grid="1" gridSize="10" guides="1" tooltips="1" connect="1" arrows="1" fold="1" page="1" pageScale="1" pageWidth="827" pageHeight="1169" math="0" shadow="0">
            <root>
                <mxCell id="0"/>
                <mxCell id="1" parent="0"/>
                <mxCell id="2" value="&lt;b&gt;&lt;font style=&quot;font-size: 17px;&quot;&gt;Admin&lt;/font&gt;&lt;/b&gt;" style="html=1;dashed=0;whitespace=wrap;strokeWidth=2;" vertex="1" parent="1">
                    <mxGeometry x="26" y="39" width="100" height="50" as="geometry"/>
                </mxCell>
                <mxCell id="3" value="&lt;b style=&quot;font-size: 15px;&quot;&gt;Manage Shoe Details&lt;/b&gt;" style="html=1;dashed=0;whitespace=wrap;strokeWidth=2;fontSize=15;" vertex="1" parent="1">
                    <mxGeometry x="623" y="130" width="200" height="50" as="geometry"/>
                </mxCell>
                <mxCell id="4" value="&lt;b style=&quot;font-size: 15px;&quot;&gt;Manage Shoe Cart Details&lt;/b&gt;" style="html=1;dashed=0;whitespace=wrap;strokeWidth=2;fontSize=15;" vertex="1" parent="1">
                    <mxGeometry x="623" y="192" width="200" height="50" as="geometry"/>
                </mxCell>
                <mxCell id="5" value="&lt;b style=&quot;font-size: 15px;&quot;&gt;Manage Product Details&lt;/b&gt;" style="html=1;dashed=0;whitespace=wrap;strokeWidth=2;fontSize=15;" vertex="1" parent="1">
                    <mxGeometry x="623" y="255" width="200" height="50" as="geometry"/>
                </mxCell>
                <mxCell id="7" value="&lt;b style=&quot;font-size: 15px;&quot;&gt;Manage Order Details&lt;/b&gt;" style="html=1;dashed=0;whitespace=wrap;strokeWidth=2;fontSize=15;" vertex="1" parent="1">
                    <mxGeometry x="623" y="320" width="200" height="50" as="geometry"/>
                </mxCell>
                <mxCell id="8" value="&lt;b style=&quot;font-size: 15px;&quot;&gt;Manage Payment Details&lt;/b&gt;" style="html=1;dashed=0;whitespace=wrap;strokeWidth=2;fontSize=15;" vertex="1" parent="1">
                    <mxGeometry x="623" y="382" width="200" height="50" as="geometry"/>
                </mxCell>
                <mxCell id="9" value="&lt;b style=&quot;font-size: 15px;&quot;&gt;Manage Customer Details&lt;/b&gt;" style="html=1;dashed=0;whitespace=wrap;strokeWidth=2;fontSize=15;" vertex="1" parent="1">
                    <mxGeometry x="623" y="445" width="200" height="50" as="geometry"/>
                </mxCell>
                <mxCell id="11" value="&lt;b style=&quot;font-size: 15px;&quot;&gt;Manage Roles of Users&lt;/b&gt;" style="html=1;dashed=0;whitespace=wrap;strokeWidth=2;fontSize=15;" vertex="1" parent="1">
                    <mxGeometry x="211" y="445" width="200" height="50" as="geometry"/>
                </mxCell>
                <mxCell id="12" value="&lt;b style=&quot;font-size: 15px;&quot;&gt;Manage User Permission&lt;/b&gt;" style="html=1;dashed=0;whitespace=wrap;strokeWidth=2;fontSize=15;" vertex="1" parent="1">
                    <mxGeometry x="417" y="445" width="200" height="50" as="geometry"/>
                </mxCell>
                <mxCell id="13" value="&lt;b style=&quot;font-size: 15px;&quot;&gt;Manage System Admins&lt;/b&gt;" style="html=1;dashed=0;whitespace=wrap;strokeWidth=2;fontSize=15;" vertex="1" parent="1">
                    <mxGeometry x="3" y="445" width="200" height="50" as="geometry"/>
                </mxCell>
                <mxCell id="15" value="&lt;b&gt;Login to &lt;br&gt;System&lt;/b&gt;" style="shape=ellipse;html=1;dashed=0;whitespace=wrap;aspect=fixed;perimeter=ellipsePerimeter;strokeWidth=2;fontSize=15;" vertex="1" parent="1">
                    <mxGeometry x="182" y="13" width="102" height="102" as="geometry"/>
                </mxCell>
                <mxCell id="16" value="&lt;b&gt;Change Role &lt;br&gt;of Access&lt;/b&gt;" style="shape=ellipse;html=1;dashed=0;whitespace=wrap;aspect=fixed;perimeter=ellipsePerimeter;strokeWidth=2;fontSize=15;" vertex="1" parent="1">
                    <mxGeometry x="363" y="11" width="102" height="102" as="geometry"/>
                </mxCell>
                <mxCell id="17" value="&lt;b&gt;Forgot &lt;br&gt;Password&lt;/b&gt;" style="shape=ellipse;html=1;dashed=0;whitespace=wrap;aspect=fixed;perimeter=ellipsePerimeter;strokeWidth=2;fontSize=15;" vertex="1" parent="1">
                    <mxGeometry x="24" y="166" width="102" height="102" as="geometry"/>
                </mxCell>
                <mxCell id="18" value="&lt;b&gt;Manage &lt;br&gt;Modules&lt;/b&gt;" style="shape=ellipse;html=1;dashed=0;whitespace=wrap;aspect=fixed;perimeter=ellipsePerimeter;strokeWidth=2;fontSize=15;" vertex="1" parent="1">
                    <mxGeometry x="363" y="166" width="102" height="102" as="geometry"/>
                </mxCell>
                <mxCell id="19" value="&lt;b&gt;Check &lt;br&gt;Credentials&lt;/b&gt;" style="shape=ellipse;html=1;dashed=0;whitespace=wrap;aspect=fixed;perimeter=ellipsePerimeter;strokeWidth=2;fontSize=15;" vertex="1" parent="1">
                    <mxGeometry x="183" y="166" width="102" height="102" as="geometry"/>
                </mxCell>
                <mxCell id="20" value="&lt;b&gt;Send Email &lt;br&gt;to Users&lt;/b&gt;" style="shape=ellipse;html=1;dashed=0;whitespace=wrap;aspect=fixed;perimeter=ellipsePerimeter;strokeWidth=2;fontSize=15;" vertex="1" parent="1">
                    <mxGeometry x="25" y="330" width="102" height="102" as="geometry"/>
                </mxCell>
                <mxCell id="21" value="" style="endArrow=classic;html=1;fontSize=17;exitX=0.5;exitY=1;exitDx=0;exitDy=0;" edge="1" parent="1" source="2" target="17">
                    <mxGeometry width="50" height="50" relative="1" as="geometry">
                        <mxPoint x="460" y="390" as="sourcePoint"/>
                        <mxPoint x="510" y="340" as="targetPoint"/>
                    </mxGeometry>
                </mxCell>
                <mxCell id="22" value="" style="endArrow=classic;html=1;fontSize=17;exitX=0.5;exitY=1;exitDx=0;exitDy=0;" edge="1" parent="1" source="17" target="20">
                    <mxGeometry width="50" height="50" relative="1" as="geometry">
                        <mxPoint x="80" y="260" as="sourcePoint"/>
                        <mxPoint x="510" y="340" as="targetPoint"/>
                    </mxGeometry>
                </mxCell>
                <mxCell id="23" value="" style="endArrow=classic;html=1;fontSize=17;exitX=1;exitY=0.5;exitDx=0;exitDy=0;" edge="1" parent="1" source="2" target="15">
                    <mxGeometry width="50" height="50" relative="1" as="geometry">
                        <mxPoint x="240" y="270" as="sourcePoint"/>
                        <mxPoint x="290" y="220" as="targetPoint"/>
                    </mxGeometry>
                </mxCell>
                <mxCell id="24" value="" style="endArrow=classic;html=1;fontSize=17;exitX=0.5;exitY=1;exitDx=0;exitDy=0;" edge="1" parent="1" source="15" target="19">
                    <mxGeometry width="50" height="50" relative="1" as="geometry">
                        <mxPoint x="240" y="270" as="sourcePoint"/>
                        <mxPoint x="290" y="220" as="targetPoint"/>
                    </mxGeometry>
                </mxCell>
                <mxCell id="25" value="" style="endArrow=classic;html=1;fontSize=17;exitX=0.5;exitY=1;exitDx=0;exitDy=0;entryX=0.5;entryY=0;entryDx=0;entryDy=0;" edge="1" parent="1" source="16" target="18">
                    <mxGeometry width="50" height="50" relative="1" as="geometry">
                        <mxPoint x="240" y="270" as="sourcePoint"/>
                        <mxPoint x="290" y="220" as="targetPoint"/>
                    </mxGeometry>
                </mxCell>
                <mxCell id="26" value="" style="endArrow=classic;html=1;fontSize=17;entryX=0;entryY=1;entryDx=0;entryDy=0;" edge="1" parent="1" target="16">
                    <mxGeometry width="50" height="50" relative="1" as="geometry">
                        <mxPoint x="280" y="220" as="sourcePoint"/>
                        <mxPoint x="290" y="220" as="targetPoint"/>
                    </mxGeometry>
                </mxCell>
                <mxCell id="27" value="" style="endArrow=classic;html=1;fontSize=17;entryX=0;entryY=0.5;entryDx=0;entryDy=0;exitX=1;exitY=0.5;exitDx=0;exitDy=0;" edge="1" parent="1" source="18" target="3">
                    <mxGeometry width="50" height="50" relative="1" as="geometry">
                        <mxPoint x="240" y="270" as="sourcePoint"/>
                        <mxPoint x="290" y="220" as="targetPoint"/>
                    </mxGeometry>
                </mxCell>
                <mxCell id="28" value="" style="endArrow=classic;html=1;fontSize=17;entryX=0;entryY=0.5;entryDx=0;entryDy=0;exitX=1;exitY=0.5;exitDx=0;exitDy=0;" edge="1" parent="1" source="18" target="4">
                    <mxGeometry width="50" height="50" relative="1" as="geometry">
                        <mxPoint x="240" y="270" as="sourcePoint"/>
                        <mxPoint x="290" y="220" as="targetPoint"/>
                    </mxGeometry>
                </mxCell>
                <mxCell id="29" value="" style="endArrow=classic;html=1;fontSize=17;exitX=1;exitY=0.5;exitDx=0;exitDy=0;entryX=0;entryY=0.5;entryDx=0;entryDy=0;" edge="1" parent="1" source="18" target="5">
                    <mxGeometry width="50" height="50" relative="1" as="geometry">
                        <mxPoint x="240" y="270" as="sourcePoint"/>
                        <mxPoint x="290" y="220" as="targetPoint"/>
                    </mxGeometry>
                </mxCell>
                <mxCell id="30" value="" style="endArrow=classic;html=1;fontSize=17;entryX=0;entryY=0.5;entryDx=0;entryDy=0;exitX=1;exitY=0.5;exitDx=0;exitDy=0;" edge="1" parent="1" source="18" target="7">
                    <mxGeometry width="50" height="50" relative="1" as="geometry">
                        <mxPoint x="460" y="210" as="sourcePoint"/>
                        <mxPoint x="290" y="220" as="targetPoint"/>
                    </mxGeometry>
                </mxCell>
                <mxCell id="31" value="" style="endArrow=classic;html=1;fontSize=17;entryX=0;entryY=0.5;entryDx=0;entryDy=0;exitX=1;exitY=0.5;exitDx=0;exitDy=0;" edge="1" parent="1" source="18" target="8">
                    <mxGeometry width="50" height="50" relative="1" as="geometry">
                        <mxPoint x="240" y="270" as="sourcePoint"/>
                        <mxPoint x="290" y="220" as="targetPoint"/>
                    </mxGeometry>
                </mxCell>
                <mxCell id="32" value="" style="endArrow=classic;html=1;fontSize=17;entryX=0;entryY=0;entryDx=0;entryDy=0;exitX=1;exitY=0.5;exitDx=0;exitDy=0;" edge="1" parent="1" source="18" target="9">
                    <mxGeometry width="50" height="50" relative="1" as="geometry">
                        <mxPoint x="240" y="270" as="sourcePoint"/>
                        <mxPoint x="290" y="220" as="targetPoint"/>
                    </mxGeometry>
                </mxCell>
                <mxCell id="33" value="" style="endArrow=classic;html=1;fontSize=17;entryX=0.5;entryY=0;entryDx=0;entryDy=0;exitX=0.5;exitY=1;exitDx=0;exitDy=0;" edge="1" parent="1" source="18" target="11">
                    <mxGeometry width="50" height="50" relative="1" as="geometry">
                        <mxPoint x="240" y="270" as="sourcePoint"/>
                        <mxPoint x="290" y="220" as="targetPoint"/>
                    </mxGeometry>
                </mxCell>
                <mxCell id="34" value="" style="endArrow=classic;html=1;fontSize=17;entryX=0.5;entryY=0;entryDx=0;entryDy=0;exitX=0.5;exitY=1;exitDx=0;exitDy=0;" edge="1" parent="1" source="18" target="13">
                    <mxGeometry width="50" height="50" relative="1" as="geometry">
                        <mxPoint x="240" y="270" as="sourcePoint"/>
                        <mxPoint x="290" y="220" as="targetPoint"/>
                    </mxGeometry>
                </mxCell>
                <mxCell id="35" value="" style="endArrow=classic;html=1;fontSize=17;entryX=0.5;entryY=0;entryDx=0;entryDy=0;exitX=0.5;exitY=1;exitDx=0;exitDy=0;" edge="1" parent="1" source="18" target="12">
                    <mxGeometry width="50" height="50" relative="1" as="geometry">
                        <mxPoint x="390" y="210" as="sourcePoint"/>
                        <mxPoint x="440" y="160" as="targetPoint"/>
                    </mxGeometry>
                </mxCell>
            </root>
        </mxGraphModel>
    </diagram>
</mxfile>